<?xml version="1.0" encoding="UTF-8" standalone="no"?>
<!DOCTYPE svg PUBLIC "-//W3C//DTD SVG 1.1//EN"
 "http://www.w3.org/Graphics/SVG/1.1/DTD/svg11.dtd">
<!-- Generated by graphviz version 2.47.0 (20210316.0004)
 -->
<!-- Title: workflow Pages: 1 -->
<svg width="216pt" height="170pt"
 viewBox="0.00 0.00 216.00 170.00" xmlns="http://www.w3.org/2000/svg" xmlns:xlink="http://www.w3.org/1999/xlink">
<g id="graph0" class="graph" transform="scale(1 1) rotate(0) translate(4 166)">
<title>workflow</title>
<polygon fill="white" stroke="transparent" points="-4,4 -4,-166 212,-166 212,4 -4,4"/>
<!-- place_fda43783be8e0b3f9206a57f2248c2237f049f81 -->
<g id="node1" class="node">
<title>place_fda43783be8e0b3f9206a57f2248c2237f049f81</title>
<ellipse fill="lightblue" stroke="#333333" cx="36" cy="-81" rx="36" ry="36"/>
<text text-anchor="middle" x="36" y="-78.8" font-family="Arial" font-size="9.00">submitted</text>
</g>
<!-- place_51c817ab85e3c10c1544cbe74ec1106357ad59f5 -->
<g id="node2" class="node">
<title>place_51c817ab85e3c10c1544cbe74ec1106357ad59f5</title>
<ellipse fill="none" stroke="#333333" cx="172" cy="-126" rx="36" ry="36"/>
<text text-anchor="middle" x="172" y="-123.8" font-family="Arial" font-size="9.00">accepted</text>
</g>
<!-- place_fda43783be8e0b3f9206a57f2248c2237f049f81&#45;&gt;place_51c817ab85e3c10c1544cbe74ec1106357ad59f5 -->
<g id="edge1" class="edge">
<title>place_fda43783be8e0b3f9206a57f2248c2237f049f81&#45;&gt;place_51c817ab85e3c10c1544cbe74ec1106357ad59f5</title>
<path fill="none" stroke="#333333" d="M70.47,-92.24C89.33,-98.58 112.98,-106.52 132.6,-113.1"/>
<polygon fill="#333333" stroke="#333333" points="132.2,-114.82 137.49,-114.75 133.31,-111.5 132.2,-114.82"/>
<text text-anchor="middle" x="104" y="-109.8" font-family="Arial" font-size="9.00">accept</text>
</g>
<!-- place_1f087a5954f6249bb7245576c304a0520d4178c5 -->
<g id="node3" class="node">
<title>place_1f087a5954f6249bb7245576c304a0520d4178c5</title>
<ellipse fill="none" stroke="#333333" cx="172" cy="-36" rx="36" ry="36"/>
<text text-anchor="middle" x="172" y="-33.8" font-family="Arial" font-size="9.00">rejected</text>
</g>
<!-- place_fda43783be8e0b3f9206a57f2248c2237f049f81&#45;&gt;place_1f087a5954f6249bb7245576c304a0520d4178c5 -->
<g id="edge2" class="edge">
<title>place_fda43783be8e0b3f9206a57f2248c2237f049f81&#45;&gt;place_1f087a5954f6249bb7245576c304a0520d4178c5</title>
<path fill="none" stroke="#333333" d="M70.47,-69.76C89.33,-63.42 112.98,-55.48 132.6,-48.9"/>
<polygon fill="#333333" stroke="#333333" points="133.31,-50.5 137.49,-47.25 132.2,-47.18 133.31,-50.5"/>
<text text-anchor="middle" x="104" y="-64.8" font-family="Arial" font-size="9.00">reject</text>
</g>
</g>
</svg>
